<?xml version="1.0" encoding="utf-8"?>
<!-- Generator: Adobe Illustrator 16.0.0, SVG Export Plug-In . SVG Version: 6.00 Build 0)  -->
<!DOCTYPE svg PUBLIC "-//W3C//DTD SVG 1.1//EN" "http://www.w3.org/Graphics/SVG/1.1/DTD/svg11.dtd">
<svg version="1.1" id="Layer_1" xmlns="http://www.w3.org/2000/svg" xmlns:xlink="http://www.w3.org/1999/xlink" x="0px" y="0px"
	 width="500.004px" height="505.726px" viewBox="0 0 500.004 505.726" enable-background="new 0 0 500.004 505.726"
	 xml:space="preserve">
<path fill="#CC99FF" d="M321.968,128.659C321.961,79.906,268.415,55.847,250.131,0c-18.282,55.847-71.829,79.906-71.836,128.659
	c0,26.683,15.701,52.597,59.914,113.515c-44.213-60.918-46.368-82.964-46.368-102.028c0-23.608,7.039-47.079,36.339-85.572
	c0,0,4.482,29.675,21.951,29.72c17.469-0.044,21.95-29.72,21.95-29.72c29.302,38.493,36.339,61.964,36.339,85.572
	c0,19.063-2.154,41.11-46.367,102.028C306.266,181.256,321.968,155.342,321.968,128.659z M250.131,66.801
	c-0.011-19.174-3.952-30.023-7.903-30.023c3.952,0,7.903-7.462,7.903-15.376c0,7.915,3.951,15.376,7.903,15.376
	C254.083,36.778,250.142,47.627,250.131,66.801z"/>
<circle fill="#FFCCCC" cx="250.262" cy="215.561" r="14.472"/>
<path fill="#CC99FF" d="M115.275,280.151c-22.451-7.297-42.6-21.244-70.155-61.004c0,0,29.607,4.907,35.048-11.692
	c5.355-16.627-21.481-30.061-21.481-30.061c45.664-15.971,70.162-15.412,92.612-8.118c18.131,5.892,38.434,14.753,82.707,75.626
	c-44.273-60.874-64.068-83.813-89.445-92.059C98.191,137.785,58.763,181.276,0,181.406c47.465,34.646,53.799,93.005,100.164,108.078
	c25.377,8.246,54.874,1.323,126.474-21.902C155.038,290.807,133.406,286.041,115.275,280.151z M32.536,200.288
	c1.221-3.758-4.654-9.822-12.18-12.269c7.526,2.447,15.844,0.995,17.065-2.764c-1.222,3.759,7.879,10.859,26.112,16.794
	C45.293,196.134,33.757,196.53,32.536,200.288z"/>
<circle fill="#FFCCCC" cx="205.14" cy="248.017" r="14.471"/>
<path fill="#CC99FF" d="M225.1,396.162c-13.875,19.1-33.368,33.951-79.697,47.871c0,0,13.816-26.644-0.289-36.946
	c-14.159-10.231-35.229,11.141-35.229,11.141c-1.077-48.364,7.024-71.49,20.9-90.589c11.206-15.421,25.906-31.992,97.481-55.287
	c-71.576,23.295-99.508,35.03-115.192,56.618c-28.652,39.446,0.528,90.386-17.508,146.312
	c47.617-34.436,105.077-22.425,133.74-61.863c15.684-21.588,18.214-51.779,18.251-127.051
	C247.521,361.639,236.306,380.74,225.1,396.162z M123.579,450.172c-3.198-2.322-10.78,1.392-15.433,7.795
	c4.652-6.403,5.842-14.763,2.645-17.084c3.197,2.321,12.762-4.138,24.041-19.646C123.57,436.758,120.381,447.85,123.579,450.172z"/>
<circle fill="#FFCCCC" cx="222.398" cy="300.89" r="14.473"/>
<path fill="#CC99FF" d="M387.125,329.137c-15.683-21.586-43.616-33.322-115.192-56.619c71.576,23.297,86.277,39.865,97.481,55.289
	c13.878,19.1,21.979,42.224,20.9,90.59c0,0-21.068-21.375-35.226-11.145c-14.107,10.304-0.292,36.948-0.292,36.948
	c-46.329-13.92-65.821-28.771-79.695-47.871c-11.207-15.422-22.423-34.524-22.459-109.796
	c0.036,75.271,2.568,105.465,18.252,127.052c28.661,39.439,86.122,27.428,133.739,61.865
	C386.596,419.521,415.777,368.584,387.125,329.137z M376.62,450.34c3.196-2.322,0.011-13.416-11.251-28.936
	c11.278,15.507,20.842,21.967,24.04,19.646c-3.198,2.321-2.007,10.681,2.646,17.085C387.402,451.73,379.816,448.018,376.62,450.34z"
	/>
<circle fill="#FFCCCC" cx="278.058" cy="301.058" r="14.472"/>
<path fill="#CC99FF" d="M355.444,152.708c-25.377,8.246-45.172,31.185-89.446,92.058c44.274-60.873,64.577-69.733,82.704-75.625
	c22.454-7.295,46.95-7.855,92.615,8.117c0,0-26.837,13.432-21.481,30.059c5.44,16.601,35.047,11.693,35.047,11.693
	c-27.554,39.762-47.702,53.709-70.155,61.004c-18.129,5.892-39.762,10.654-111.36-12.569
	c71.599,23.224,101.096,30.147,126.473,21.902c46.364-15.072,52.7-73.433,100.165-108.078
	C441.24,181.14,401.813,137.648,355.444,152.708z M467.465,200.151c-1.221-3.757-12.755-4.154-30.995,1.762
	c18.234-5.934,27.334-13.035,26.113-16.794c1.221,3.76,9.539,5.211,17.064,2.766C472.123,190.329,466.245,196.394,467.465,200.151z"
	/>
<path fill="#FFCCCC" d="M299.593,261.646c-7.6,2.471-15.764-1.688-18.232-9.292c-2.472-7.6,1.688-15.765,9.292-18.235
	c7.602-2.471,15.765,1.69,18.232,9.291C311.358,251.012,307.197,259.178,299.593,261.646z"/>
<path fill="#CCCCFF" d="M277.24,505.724c5.288-5.742,8.52-13.406,8.52-21.825c0-17.805-14.435-32.24-32.24-32.24
	s-32.241,14.436-32.241,32.24c0,8.42,3.232,16.084,8.519,21.827c-9.011-7.054-14.811-18.023-14.811-30.354
	c0-21.28,17.252-38.53,38.533-38.53s38.53,17.25,38.53,38.53C292.049,487.701,286.251,498.672,277.24,505.724z"/>
<path fill="#CCCCFF" d="M31.073,361.669c7.095,3.254,15.381,3.958,23.389,1.356c16.934-5.503,26.202-23.692,20.698-40.625
	c-5.501-16.936-23.689-26.201-40.623-20.699c-8.008,2.603-14.299,8.044-18.126,14.846c3.924-10.749,12.562-19.654,24.289-23.465
	c20.238-6.575,41.977,4.499,48.553,24.741c6.577,20.237-4.5,41.976-24.738,48.551C52.789,370.186,40.565,368.061,31.073,361.669z"/>
<path fill="#CCCCFF" d="M92.339,83.104c-0.9,7.754,0.99,15.852,5.939,22.663c10.466,14.406,30.628,17.6,45.033,7.134
	c14.405-10.466,17.598-30.628,7.133-45.033c-4.95-6.811-12.069-11.112-19.721-12.652c11.436,0.41,22.575,5.875,29.822,15.852
	c12.507,17.215,8.691,41.313-8.525,53.82c-17.215,12.507-41.313,8.692-53.821-8.524C90.953,106.389,89.196,94.106,92.339,83.104z"/>
<path fill="#CCCCFF" d="M376.245,55.049c-7.65,1.539-14.769,5.841-19.717,12.651c-10.465,14.404-7.272,34.568,7.13,45.032
	c14.406,10.465,34.568,7.273,45.035-7.132c4.95-6.813,6.839-14.911,5.938-22.665c3.143,11.004,1.389,23.287-5.86,33.262
	c-12.508,17.217-36.605,21.032-53.821,8.522c-17.216-12.507-21.033-36.604-8.524-53.82C353.671,60.925,364.81,55.46,376.245,55.049z
	"/>
<path fill="#CCCCFF" d="M490.365,316.681c-3.826-6.802-10.119-12.243-18.127-14.844c-16.933-5.504-35.122,3.764-40.624,20.698
	s3.767,35.124,20.7,40.624c8.01,2.603,16.296,1.896,23.392-1.356c-9.493,6.391-21.718,8.519-33.443,4.709
	c-20.24-6.576-31.315-28.317-24.738-48.555c6.573-20.239,28.313-31.315,48.551-24.74
	C477.801,297.026,486.443,305.931,490.365,316.681z"/>
</svg>
